<svg width="32" height="32" viewBox="0 0 32 32" fill="none" xmlns="http://www.w3.org/2000/svg">
<path d="M0.371294 2.16474C-0.123765 1.66968 -0.123765 0.866807 0.371294 0.371489C0.866352 -0.12383 1.66923 -0.12383 2.16454 0.371489L15.9999 14.2068L29.8352 0.371489C30.3303 -0.12383 31.1331 -0.12383 31.6287 0.371489C32.1238 0.866547 32.1238 1.66968 31.6287 2.16474L17.7929 15.9998L31.6284 29.8354C32.1235 30.3304 32.1235 31.1333 31.6284 31.6286C31.1331 32.124 30.3303 32.124 29.8349 31.6286L15.9996 17.7933L2.16454 31.6286C1.66949 32.124 0.866612 32.124 0.371294 31.6286C-0.123765 31.1336 -0.123765 30.3307 0.371294 29.8354L14.2066 15.9998L0.371294 2.16474Z" fill="#0E75EC"/>
</svg>
