<svg width="21" height="16" viewBox="0 0 21 16" fill="none" xmlns="http://www.w3.org/2000/svg">
<path d="M17.2089 1.47519C15.9537 0.899291 14.6078 0.474991 13.2006 0.231976C13.1749 0.227286 13.1493 0.239007 13.1361 0.262449C12.963 0.570318 12.7713 0.971958 12.637 1.28765C11.1234 1.06104 9.61761 1.06104 8.13505 1.28765C8.00076 0.964941 7.80206 0.570318 7.62819 0.262449C7.61498 0.239789 7.58938 0.228068 7.56375 0.231976C6.15728 0.474214 4.81135 0.898514 3.55545 1.47519C3.54458 1.47988 3.53526 1.4877 3.52908 1.49785C0.976137 5.31189 0.27678 9.03219 0.619861 12.7064C0.621414 12.7243 0.631504 12.7415 0.645476 12.7525C2.32983 13.9894 3.96142 14.7403 5.56271 15.2381C5.58834 15.2459 5.61549 15.2365 5.6318 15.2154C6.01059 14.6982 6.34824 14.1527 6.63774 13.5792C6.65483 13.5456 6.63852 13.5057 6.6036 13.4924C6.06803 13.2893 5.55805 13.0416 5.06749 12.7603C5.02869 12.7376 5.02558 12.6821 5.06128 12.6555C5.16451 12.5782 5.26777 12.4977 5.36634 12.4164C5.38418 12.4016 5.40903 12.3985 5.43 12.4078C8.65277 13.8792 12.1418 13.8792 15.3265 12.4078C15.3475 12.3977 15.3724 12.4008 15.391 12.4157C15.4896 12.4969 15.5928 12.5782 15.6968 12.6555C15.7325 12.6821 15.7302 12.7376 15.6914 12.7603C15.2008 13.047 14.6908 13.2893 14.1545 13.4917C14.1196 13.5049 14.104 13.5456 14.1211 13.5792C14.4168 14.1519 14.7545 14.6974 15.1263 15.2147C15.1418 15.2365 15.1698 15.2459 15.1954 15.2381C16.8044 14.7403 18.436 13.9894 20.1204 12.7525C20.1351 12.7415 20.1444 12.7251 20.146 12.7071C20.5566 8.45939 19.4583 4.76961 17.2345 1.49863C17.229 1.4877 17.2197 1.47988 17.2089 1.47519ZM7.11901 10.4692C6.14874 10.4692 5.34926 9.57838 5.34926 8.48441C5.34926 7.39043 6.13323 6.49964 7.11901 6.49964C8.11253 6.49964 8.90427 7.39825 8.88874 8.48441C8.88874 9.57838 8.10477 10.4692 7.11901 10.4692ZM13.6624 10.4692C12.6921 10.4692 11.8927 9.57838 11.8927 8.48441C11.8927 7.39043 12.6766 6.49964 13.6624 6.49964C14.6559 6.49964 15.4476 7.39825 15.4321 8.48441C15.4321 9.57838 14.6559 10.4692 13.6624 10.4692Z" fill="white"/>
</svg>
