<svg width="45" height="32" viewBox="0 0 45 32" fill="none" xmlns="http://www.w3.org/2000/svg">
<path d="M2.51912 0H41.6662C42.3354 0.00662322 42.975 0.276619 43.4465 0.7515C43.918 1.22638 44.1835 1.86791 44.1853 2.53711V29.4413C44.1891 29.9547 44.0359 30.4569 43.7463 30.8808C43.6942 31.0166 43.6132 31.1394 43.5088 31.2407C43.4386 31.3077 43.3585 31.3636 43.2713 31.4062C42.8172 31.7893 42.2423 31.9996 41.6482 32H2.51912C1.85304 31.9934 1.2161 31.7259 0.745088 31.2549C0.274076 30.7839 0.00656282 30.147 0 29.4809V2.53711C0.00186031 1.86791 0.267297 1.22638 0.73881 0.7515C1.21032 0.276619 1.84995 0.00662322 2.51912 0V0ZM2.41116 28.3725L15.6473 14.6181L2.41116 3.4332V28.3725ZM17.641 16.3347L3.49798 30.0315H40.565L27.0517 16.3347L23.0931 19.6491C22.9187 19.794 22.6991 19.8733 22.4723 19.8733C22.2456 19.8733 22.026 19.794 21.8516 19.6491L17.641 16.3347ZM29.013 14.5929L41.7742 28.484V3.31084L29.013 14.5929ZM3.65632 1.94692L22.4345 17.166L40.3851 1.94692H3.65632Z" fill="white"/>
</svg>
