<svg width="21" height="21" viewBox="0 0 21 21" fill="none" xmlns="http://www.w3.org/2000/svg">
<path fill-rule="evenodd" clip-rule="evenodd" d="M10.3778 0.00359103C4.64725 0.00359103 0 4.76731 0 10.6432C0 15.3445 2.97328 19.3314 7.09693 20.7389C7.61596 20.8375 7.80673 20.5076 7.80673 20.2264C7.80673 19.9727 7.79638 19.1347 7.79217 18.2463C4.9047 18.89 4.29602 16.9904 4.29602 16.9904C3.82407 15.7604 3.14375 15.4333 3.14375 15.4333C2.20219 14.7723 3.21539 14.7868 3.21539 14.7868C4.25729 14.8615 4.80584 15.8825 4.80584 15.8825C5.7321 17.5092 7.23444 17.0383 7.82625 16.7669C7.91972 16.0793 8.18787 15.6096 8.48511 15.3437C6.17985 15.0755 3.75664 14.1628 3.75664 10.0855C3.75664 8.92424 4.16269 7.97465 4.82576 7.23001C4.71776 6.96142 4.36227 5.87986 4.92575 4.41459C4.92575 4.41459 5.79719 4.1283 7.78069 5.50519C8.60809 5.26995 9.49562 5.15134 10.377 5.14742C11.2592 5.15134 12.1483 5.26955 12.9768 5.50519C14.9577 4.1291 15.8283 4.41459 15.8283 4.41459C16.3926 5.88025 16.0386 6.96258 15.9306 7.23004C16.596 7.97465 16.9986 8.92424 16.9986 10.0855C16.9986 14.1722 14.57 15.0707 12.2597 15.3343C12.6321 15.6641 12.9646 16.3118 12.9646 17.3038C12.9646 18.7266 12.9527 19.8733 12.9527 20.2233C12.9527 20.5064 13.1397 20.8375 13.666 20.7338C17.7873 19.3255 20.7568 15.3382 20.7568 10.6396C20.7568 4.76451 16.1103 0 10.3786 0L10.3778 0.00355778L10.3778 0.00359103Z" fill="white"/>
</svg>
