<svg width="22" height="20" viewBox="0 0 22 20" fill="none" xmlns="http://www.w3.org/2000/svg">
<path fill-rule="evenodd" clip-rule="evenodd" d="M8.38668 6.19439H12.4881V8.29469L12.5474 8.29482C13.1186 7.2712 14.5153 6.19452 16.5978 6.19452C20.9287 6.1944 21.7297 8.88668 21.7297 12.389V19.5233L17.4524 19.5235V13.1991C17.4524 11.6915 17.421 9.75075 15.2284 9.75075C13.0013 9.75075 12.66 11.3919 12.66 13.0893V19.5235H8.38668V6.19439ZM5.42143 2.49193C5.42143 3.71833 4.4251 4.71352 3.19738 4.71352C1.96966 4.71352 0.972961 3.71827 0.972961 2.49193C0.972961 1.26553 1.96966 0.270271 3.19738 0.270271C4.4251 0.270271 5.42143 1.26553 5.42143 2.49193ZM0.972961 6.19439H5.42143V19.5234H0.972961V6.19439Z" fill="white"/>
</svg>
