<svg width="21" height="21" viewBox="0 0 21 21" fill="none" xmlns="http://www.w3.org/2000/svg">
<path fill-rule="evenodd" clip-rule="evenodd" d="M17.7309 3.01655C15.7792 1.07034 13.1832 1.69317e-10 10.4182 1.69317e-10C4.72243 -3.22721e-05 0.0865623 4.61332 0.0865623 10.2852C0.0865623 12.0969 0.563482 13.869 1.46712 15.426L0 20.7568L5.47976 19.3258C6.99095 20.1449 8.691 20.5791 10.4167 20.5791H10.4209C16.1171 20.5791 20.7568 15.9658 20.7568 10.2943C20.7568 7.54528 19.6811 4.9636 17.7294 3.0181L17.7309 3.01658L17.7309 3.01655ZM10.4213 18.8437C8.87752 18.8437 7.36555 18.4297 6.04629 17.651L5.73179 17.4642L2.47995 18.3116L3.34836 15.1577L3.14495 14.8337C2.28036 13.4752 1.82916 11.9028 1.82916 10.2855C1.82916 5.57116 5.68318 1.7347 10.4259 1.7347C12.7193 1.7347 14.8798 2.62702 16.5006 4.23973C18.1221 5.85744 19.0139 8.00229 19.0139 10.2882C19.01 15.006 15.156 18.8425 10.4206 18.8425L10.4213 18.8436L10.4213 18.8437ZM15.131 12.4388C14.8744 12.3088 13.603 11.689 13.367 11.6032C13.1311 11.5174 12.959 11.4732 12.784 11.7332C12.6132 11.9886 12.1163 12.5687 11.965 12.7422C11.8137 12.9126 11.6639 12.9369 11.4073 12.807C11.1506 12.677 10.3152 12.406 9.32953 11.53C8.56302 10.8492 8.04319 10.0061 7.89186 9.75073C7.74056 9.49533 7.875 9.35353 8.00641 9.22815C8.12515 9.11378 8.26344 8.92853 8.39369 8.77795C8.52433 8.6274 8.56493 8.52219 8.65071 8.34841C8.73692 8.17801 8.69479 8.02743 8.63006 7.89821C8.56493 7.76864 8.04702 6.5035 7.83595 5.98818C7.6287 5.48463 7.41228 5.55476 7.2533 5.54602C7.102 5.53837 6.93076 5.53837 6.76032 5.53837C6.58983 5.53837 6.30789 5.60278 6.07194 5.85893C5.83597 6.11433 5.16714 6.73867 5.16714 8.00342C5.16714 9.26852 6.09186 10.4887 6.22172 10.6629C6.35232 10.8329 8.04319 13.4313 10.6335 14.5432C11.249 14.8066 11.7298 14.9648 12.1045 15.0871C12.7238 15.2815 13.2858 15.2533 13.7302 15.1882C14.227 15.1153 15.2582 14.5676 15.4746 13.9673C15.6907 13.3665 15.6907 12.8527 15.626 12.7464C15.5647 12.632 15.3938 12.5687 15.133 12.4372L15.131 12.4388H15.131Z" fill="white"/>
</svg>
