<svg width="109" height="97" viewBox="0 0 109 97" fill="none" xmlns="http://www.w3.org/2000/svg">
<path fill-rule="evenodd" clip-rule="evenodd" d="M85.7361 30.195C86.9373 30.5417 88.1039 30.9084 89.2297 31.2959C100.951 35.3309 108.525 41.6513 108.525 48.187C108.525 55.0025 100.431 61.6665 87.9893 65.7886C87.3319 66.0065 86.6578 66.2161 85.971 66.4191C86.2162 67.4043 86.4344 68.3723 86.622 69.3198C89.078 81.7262 87.1863 91.9233 81.3654 95.293C75.7295 98.5557 66.62 95.3507 57.3968 87.4138C56.4228 86.5754 55.4436 85.6816 54.4628 84.7372C53.7062 85.4686 52.9509 86.1663 52.1983 86.8242C42.6761 95.1477 32.8973 98.6015 27.0706 95.2414C21.4295 91.9878 19.657 82.4954 21.9268 70.5409C22.1661 69.2796 22.4512 67.9865 22.7791 66.6669C21.7691 66.3772 20.7892 66.072 19.8447 65.7492C7.87724 61.6587 0 54.9127 0 48.187C0 41.6749 7.3379 35.3968 18.8277 31.3909C20.1119 30.9433 21.4541 30.5226 22.8443 30.1279C22.5405 28.9078 22.2718 27.7079 22.0419 26.5328C19.6614 14.3671 21.3364 4.64503 26.9926 1.37073C32.8911 -2.044 42.7144 1.62302 52.5147 10.3247C53.1127 10.8558 53.7124 11.4109 54.3129 11.9854C55.2143 11.1171 56.116 10.2886 57.0152 9.50605C66.3664 1.36803 75.6254 -2.03608 81.2869 1.22875C87.1913 4.63363 88.9204 14.9752 86.2758 27.8122C86.1147 28.5939 85.9335 29.3892 85.7361 30.195ZM84.7085 61.9585C85.3289 61.7744 85.9378 61.5845 86.5313 61.3881C97.2735 57.8286 103.889 52.3825 103.889 48.1871C103.889 44.2485 97.7634 39.137 87.7206 35.6797C86.6823 35.3222 85.6048 34.9833 84.4946 34.6621C83.1596 38.982 81.3776 43.5465 79.2129 48.2097C81.4813 52.9867 83.335 57.6104 84.7085 61.9585ZM82.5957 84.5436C83.3151 80.6662 83.16 75.7063 82.074 70.2204C81.9046 69.364 81.7079 68.4882 81.4865 67.5951C76.9916 68.6342 72.0349 69.3953 66.7885 69.8609C63.8057 74.1789 60.7495 78.0669 57.6916 81.4113C58.6053 82.2906 59.5161 83.1215 60.4203 83.8996C68.3082 90.6873 75.6222 93.2606 79.0423 91.2809C80.6495 90.3506 81.9494 88.0277 82.5957 84.5436ZM29.3872 91.2251C30.9959 92.1527 33.6573 92.1189 36.9988 90.9388C40.7174 89.6254 44.9369 87.0141 49.1475 83.3336C49.8333 82.734 50.5229 82.0976 51.2152 81.4293C48.0464 78.0286 44.9019 74.1449 41.899 69.9196C36.6401 69.4932 31.7197 68.7858 27.274 67.8028C26.969 69.0321 26.7044 70.2348 26.482 71.4057C24.5408 81.6292 25.9639 89.2507 29.3872 91.2251ZM8.68666 54.6378C11.6822 57.2029 16.0524 59.5537 21.3442 61.3624C22.205 61.6564 23.0995 61.9357 24.0229 62.2011C25.3943 57.7319 27.201 53.0397 29.3787 48.3C27.2288 43.6296 25.4474 39.011 24.0894 34.5935C22.7941 34.9615 21.546 35.3533 20.3538 35.769C10.5276 39.1949 4.63599 44.2354 4.63599 48.1871C4.63599 50.0441 5.99497 52.3326 8.68666 54.6378ZM29.3153 5.38331C25.9067 7.35639 24.5522 15.2193 26.5917 25.6426C26.8052 26.7338 27.0554 27.85 27.3378 28.9861C31.8298 27.9684 36.7156 27.2085 41.8196 26.7354C44.7959 22.535 47.9116 18.6804 51.0647 15.2947C50.5202 14.7746 49.9772 14.272 49.4363 13.7918C40.9745 6.27829 32.946 3.28139 29.3153 5.38331ZM70.1045 31.7745C71.2284 33.5361 72.3309 35.3471 73.4047 37.2019C74.5012 39.096 75.5424 40.9804 76.5268 42.8494C77.8991 39.6363 79.0649 36.5021 80.0002 33.5044C76.8847 32.7933 73.5672 32.2122 70.1045 31.7745ZM60.7008 26.3177C58.5945 23.5113 56.4529 20.9247 54.3145 18.608C52.1426 20.9514 49.9826 23.5345 47.8741 26.3148C49.9835 26.2163 52.1166 26.1653 54.2627 26.1653C56.4294 26.1653 58.5782 26.2175 60.7008 26.3177ZM32.0385 42.8459C33.0074 40.9682 34.0293 39.0941 35.102 37.234V37.2336C36.1776 35.3685 37.2891 33.5442 38.4289 31.7664C34.9882 32.1958 31.6863 32.7624 28.5899 33.4553C29.5334 36.4955 30.6884 39.644 32.0385 42.8459ZM28.526 63.3308C31.6216 64.0046 34.9732 64.542 38.528 64.9386C37.3589 63.1245 36.2199 61.2642 35.1206 59.3651H35.1204C34.0411 57.501 33.0152 55.6261 32.0437 53.7498C30.665 57.0206 29.4845 60.2364 28.526 63.3308ZM47.9131 70.2789C50.0537 73.0998 52.2454 75.7223 54.4428 78.0931C56.5667 75.7548 58.7005 73.1282 60.8138 70.2565C58.6615 70.3523 56.4748 70.4021 54.2627 70.4021C52.1096 70.4021 49.9911 70.3604 47.9131 70.2789ZM80.2152 63.1299C79.2444 60.0882 78.0216 56.8892 76.571 53.5831C75.5785 55.4963 74.5288 57.4162 73.4233 59.3333C72.3305 61.2281 71.2184 63.0702 70.0918 64.8555C73.6713 64.4259 77.0686 63.8477 80.2152 63.1299ZM64.2011 65.4171C65.9693 62.7665 67.7109 59.9586 69.4074 57.0171C71.1015 54.0791 72.6612 51.1377 74.0706 48.2325C72.6569 45.3765 71.0938 42.4644 69.3921 39.525C67.7096 36.6184 65.9577 33.8249 64.1631 31.1759C60.9365 30.9298 57.6226 30.8015 54.2627 30.8015H54.2625C50.9177 30.8015 47.6081 30.9288 44.3805 31.1728C42.5581 33.8413 40.7943 36.6439 39.1183 39.5502L39.1187 39.5496C37.4471 42.4481 35.9039 45.3797 34.5022 48.2984C35.9043 51.2103 37.4516 54.1386 39.1328 57.0424H39.1324C40.818 59.9541 42.5975 62.7704 44.4369 65.4557C47.6004 65.6611 50.8855 65.766 54.2627 65.766C57.6537 65.766 60.9807 65.6473 64.2011 65.4171ZM81.7353 26.8766C84.0187 15.7933 82.6054 7.34113 78.9712 5.24539C75.5594 3.27791 68.071 6.03083 60.0589 13.0034C59.2296 13.7253 58.3968 14.4903 57.5629 15.2925C60.6647 18.6348 63.7549 22.4954 66.7369 26.742C71.8559 27.2222 76.7451 27.9953 81.2476 29.0342C81.4257 28.3042 81.5897 27.5838 81.7353 26.8766Z" fill="#53C1DE"/>
<path d="M54.2627 38.4961C59.6148 38.4961 63.9537 42.8348 63.9537 48.187C63.9537 53.5391 59.6148 57.878 54.2627 57.878C48.9107 57.878 44.5718 53.5391 44.5718 48.187C44.5718 42.8348 48.9107 38.4961 54.2627 38.4961Z" fill="#53C1DE"/>
</svg>
