<svg width="55" height="55" viewBox="0 0 55 55" fill="none" xmlns="http://www.w3.org/2000/svg">
<path d="M50.8772 41.3373L5.9547 53.3742C3.32652 54.0784 0.921562 51.6735 1.62578 49.0453L13.6627 4.12284C14.3669 1.49465 17.6522 0.614377 19.5761 2.53834L52.4617 35.4239C54.3856 37.3478 53.5053 40.6331 50.8772 41.3373Z" stroke="#2682F0" stroke-width="3"/>
<path d="M20.9455 40.2808C18.3973 40.2808 16.5225 39.1926 15.3209 37.0164L17.1854 35.7107C17.6412 36.519 18.1591 37.1097 18.7391 37.4827C19.3192 37.8351 19.9718 38.0113 20.6969 38.0113C21.7948 38.0113 22.6131 37.6796 23.1518 37.0164C23.6904 36.3324 23.9597 35.2132 23.9597 33.6588V19.5132L26.57 19.5132V33.9075C26.57 34.778 26.4561 35.607 26.2282 36.3946C26.021 37.1615 25.6895 37.8351 25.2338 38.4154C24.7987 38.9957 24.2187 39.4517 23.4936 39.7833C22.7892 40.1149 21.9398 40.2808 20.9455 40.2808Z" fill="#3D90EE"/>
</svg>
